<svg xmlns="http://www.w3.org/2000/svg" width="400" height="300" viewBox="0 0 400 300">
  <!-- 空 -->
  <rect width="400" height="180" fill="#bfe3f5"/>
  <circle cx="340" cy="50" r="28" fill="#ffe27a"/>
  <!-- 山の斜面 -->
  <path d="M0 180 L0 130 C 100 90, 300 90, 400 140 L400 180 Z" fill="#a9cf6e"/>
  <!-- 段々畑 -->
  <path d="M0 200 L400 190 L400 220 L0 230 Z" fill="#8fbf5a"/>
  <path d="M0 240 L400 230 L400 260 L0 270 Z" fill="#7fae4c"/>
  <path d="M0 270 L400 260 L400 300 L0 300 Z" fill="#6fa03f"/>
  <!-- みかんの木(丸い樹冠+実) -->
  <g>
    <circle cx="60" cy="210" r="18" fill="#4c8c3a"/>
    <circle cx="55" cy="212" r="3" fill="#f5941f"/>
    <circle cx="66" cy="206" r="3" fill="#f5941f"/>
    <circle cx="62" cy="218" r="3" fill="#f5941f"/>
  </g>
  <g>
    <circle cx="130" cy="220" r="20" fill="#4c8c3a"/>
    <circle cx="124" cy="222" r="3" fill="#f5941f"/>
    <circle cx="138" cy="216" r="3" fill="#f5941f"/>
    <circle cx="132" cy="230" r="3" fill="#f5941f"/>
  </g>
  <g>
    <circle cx="210" cy="250" r="22" fill="#4c8c3a"/>
    <circle cx="202" cy="252" r="3.5" fill="#f5941f"/>
    <circle cx="220" cy="245" r="3.5" fill="#f5941f"/>
    <circle cx="214" cy="262" r="3.5" fill="#f5941f"/>
    <circle cx="228" cy="256" r="3.5" fill="#f5941f"/>
  </g>
  <g>
    <circle cx="300" cy="255" r="22" fill="#4c8c3a"/>
    <circle cx="292" cy="257" r="3.5" fill="#f5941f"/>
    <circle cx="310" cy="250" r="3.5" fill="#f5941f"/>
    <circle cx="304" cy="267" r="3.5" fill="#f5941f"/>
  </g>
  <g>
    <circle cx="360" cy="230" r="18" fill="#4c8c3a"/>
    <circle cx="354" cy="232" r="3" fill="#f5941f"/>
    <circle cx="366" cy="226" r="3" fill="#f5941f"/>
  </g>
  <text x="200" y="292" font-family="sans-serif" font-size="16" fill="#3d5a26" text-anchor="middle">和歌山県有田市のみかん畑</text>
</svg>
